<?xml version="1.0" standalone="no"?><svg xmlns:xlink="http://www.w3.org/1999/xlink" xmlns="http://www.w3.org/2000/svg" viewBox="0 0 1400 538.4591474245116" preserveAspectRatio="xMaxYMax slice"><g transform="scale(1.2433392539964476)"><rect x="0" y="0" width="1126" height="433.0769230769231" fill="#ffffff"/><rect x="0" y="0" width="86.61538461538461" height="86.61538461538461" fill="#ffffff"/><rect x="0" y="0" width="43.31" height="43.31" fill="#8acbc5"/><path d="M 0 43.31 A 43.31 43.31 0 0 1 43.31 0 L 43.31 10.8275 A 32.4825 32.4825 0 0 0 10.8275 43.31" fill="#fbfbfb"/><rect x="43.31" y="0" width="43.31" height="43.31" fill="#f5f5f5"/><path d="M 43.31 0 A 43.31 43.31 0 0 1 86.62 43.31 L 75.7925 43.31 A 32.4825 32.4825 0 0 0 43.31 10.8275" fill="#fefefe"/><rect x="0" y="43.31" width="43.31" height="43.31" fill="#fcfcfc"/><path d="M 0 43.31 A 43.31 43.31 0 0 0 43.31 86.62 L 43.31 75.7925 A 32.4825 32.4825 0 0 1 10.8275 43.31" fill="#fefefe"/><rect x="43.31" y="43.31" width="43.31" height="43.31" fill="#fdfdfd"/><path d="M 43.31 86.62 A 43.31 43.31 0 0 0 86.62 43.31 L 75.7925 43.31 A 32.4825 32.4825 0 0 1 43.31 75.7925" fill="#f9f9f9"/><rect x="86.62" y="0" width="86.62" height="86.62" fill="#d3ece9"/><polygon points="173.24,0 173.24,86.62 86.62,86.62" fill="#6fbfb8"/><rect x="173.23076923076923" y="0" width="86.61538461538461" height="86.61538461538461" fill="#ffffff"/><rect x="173.23" y="0" width="43.31" height="43.31" fill="#ffffff"/><path d="M 173.23 0 A 43.31 43.31 0 0 1 216.54 43.31 L 173.23 43.31L173.23 0" fill="#fcfcfc"/><rect x="216.54" y="0" width="43.31" height="43.31" fill="#fdfefe"/><path d="M 216.54 43.31 A 43.31 43.31 0 0 1  259.85 0 L 259.85 43.31L216.54 43.31" fill="#f8f8f8"/><rect x="173.23" y="43.31" width="43.31" height="43.31" fill="#f3f3f3"/><path d="M 173.23 86.62 A 43.31 43.31 0 0 0 216.54 43.31 L 173.23 43.31L173.23 86.62" fill="#fbfbfb"/><rect x="216.54" y="43.31" width="43.31" height="43.31" fill="#8ecdc8"/><path d="M 216.54 43.31 A 43.31 43.31 0 0 0 259.85 86.62 L 259.85 43.31L216.54 43.31" fill="#fefefe"/><rect x="259.8461538461538" y="0" width="86.61538461538461" height="86.61538461538461" fill="#ffffff"/><rect x="259.85" y="0" width="43.31" height="43.31" fill="#f9f9f9"/><polygon points="303.16,0 303.16,43.31 259.85,43.31" fill="#f2f2f2"/><rect x="303.15" y="0" width="43.31" height="43.31" fill="#bee2df"/><polygon points="303.15,0 346.46,0 303.15,43.31" fill="#fefefe"/><rect x="259.85" y="43.31" width="43.31" height="43.31" fill="#c2e4e1"/><polygon points="259.85,43.31 303.16,43.31 303.16,86.62" fill="#fdfdfd"/><rect x="303.15" y="43.31" width="43.31" height="43.31" fill="#c1e4e0"/><polygon points="303.15,43.31 346.46,86.62 303.15,86.62" fill="#fbfbfb"/><rect x="346.46" y="0" width="86.62" height="86.62" fill="#f4f4f4"/><path d="M 346.46 86.62 A 86.62 86.62 0 0 1  433.08 0 L 346.46 86.62 A 86.62 86.62 0 0 0 433.08 0" fill="#45ada4"/><rect x="433.08" y="0" width="86.62" height="86.62" fill="#b7dfdc"/><path d="M 433.08 86.62 A 86.62 86.62 0 0 1  519.7 0 L 519.7 86.62L433.08 86.62" fill="#a5d7d3"/><rect x="519.6923076923076" y="0" width="86.61538461538461" height="86.61538461538461" fill="#ffffff"/><rect x="519.69" y="0" width="43.31" height="43.31" fill="#b7dfdc"/><path d="M 519.69 0 A 43.31 43.31 0 0 0 563 43.31 L 563 0L519.69 0" fill="#fbfbfb"/><rect x="563" y="0" width="43.31" height="43.31" fill="#78c3bd"/><path d="M 563 43.31 A 43.31 43.31 0 0 0 606.31 0 L 563 0L563 43.31" fill="#f4f4f4"/><rect x="519.69" y="43.31" width="43.31" height="43.31" fill="#fafafa"/><path d="M 519.69 86.62 A 43.31 43.31 0 0 1  563 43.31 L 563 86.62L519.69 86.62" fill="#89cbc5"/><rect x="563" y="43.31" width="43.31" height="43.31" fill="#e3f3f1"/><path d="M 563 43.31 A 43.31 43.31 0 0 1 606.31 86.62 L 563 86.62L563 43.31" fill="#fbfdfd"/><rect x="606.3076923076923" y="0" width="86.61538461538461" height="86.61538461538461" fill="#ffffff"/><rect x="606.31" y="0" width="43.31" height="43.31" fill="#fcfcfc"/><path d="M 606.31 0 A 43.31 43.31 0 0 0 649.6199999999999 43.31 L 649.6199999999999 0L606.31 0" fill="#cde9e7"/><rect x="649.62" y="0" width="43.31" height="43.31" fill="#f3f3f3"/><path d="M 649.62 43.31 A 43.31 43.31 0 0 0 692.9300000000001 0 L 649.62 0L649.62 43.31" fill="#c2e4e1"/><rect x="606.31" y="43.31" width="43.31" height="43.31" fill="#fafafa"/><path d="M 606.31 86.62 A 43.31 43.31 0 0 1  649.6199999999999 43.31 L 649.6199999999999 86.62L606.31 86.62" fill="#e7f5f3"/><rect x="649.62" y="43.31" width="43.31" height="43.31" fill="#f5f5f5"/><path d="M 649.62 43.31 A 43.31 43.31 0 0 1 692.9300000000001 86.62 L 649.62 86.62L649.62 43.31" fill="#78c3bd"/><rect x="692.92" y="0" width="86.62" height="86.62" fill="#fbfbfb"/><path d="M 692.92 0 A 86.62 86.62 0 0 1 779.54 86.62 L 692.92 86.62L692.92 0" fill="#fcfcfc"/><rect x="779.54" y="0" width="86.62" height="86.62" fill="#fafafa"/><path d="M 779.54 86.62 A 86.62 86.62 0 0 1  866.16 0 L 779.54 86.62 A 86.62 86.62 0 0 0 866.16 0" fill="#fcfcfc"/><rect x="866.15" y="0" width="86.62" height="86.62" fill="#fafafa"/><polygon points="866.15,0 952.77,0 866.15,86.62" fill="#f1f9f8"/><rect x="952.77" y="0" width="86.62" height="86.62" fill="#fcfcfc"/><polygon points="1039.3899999999999,0 1039.3899999999999,86.62 952.77,86.62" fill="#f7f7f7"/><rect x="1039.3846153846152" y="0" width="86.61538461538461" height="86.61538461538461" fill="#ffffff"/><rect x="1039.38" y="0" width="43.31" height="43.31" fill="#daefed"/><path d="M 1039.38 0 A 43.31 43.31 0 0 0 1082.69 43.31 L 1082.69 0L1039.38 0" fill="#f7f7f7"/><rect x="1082.69" y="0" width="43.31" height="43.31" fill="#89cbc5"/><path d="M 1082.69 43.31 A 43.31 43.31 0 0 0 1126 0 L 1082.69 0L1082.69 43.31" fill="#f6f6f6"/><rect x="1039.38" y="43.31" width="43.31" height="43.31" fill="#8bccc6"/><path d="M 1039.38 86.62 A 43.31 43.31 0 0 1  1082.69 43.31 L 1082.69 86.62L1039.38 86.62" fill="#fdfdfd"/><rect x="1082.69" y="43.31" width="43.31" height="43.31" fill="#28a095"/><path d="M 1082.69 43.31 A 43.31 43.31 0 0 1 1126 86.62 L 1082.69 86.62L1082.69 43.31" fill="#fafafa"/><rect x="0" y="86.62" width="86.62" height="86.62" fill="#f9f9f9"/><polygon points="0,86.62 86.62,86.62 0,173.24" fill="#aad9d5"/><rect x="86.62" y="86.62" width="86.62" height="86.62" fill="#f8f8f8"/><rect x="86.62" y="86.62" width="86.62" height="86.62" fill="#fbfbfb"/><rect x="173.23" y="86.62" width="86.62" height="86.62" fill="#f5f5f5"/><path d="M 173.23 86.62 A 86.62 86.62 0 0 0 259.85 173.24 L 259.85 86.62L173.23 86.62" fill="#f7f7f7"/><rect x="259.8461538461538" y="86.61538461538461" width="86.61538461538461" height="86.61538461538461" fill="#ffffff"/><rect x="259.85" y="86.62" width="43.31" height="43.31" fill="#1d9b90"/><polygon points="303.16,86.62 303.16,129.93 259.85,129.93" fill="#bae1dd"/><rect x="303.15" y="86.62" width="43.31" height="43.31" fill="#f7f7f7"/><polygon points="303.15,86.62 346.46,129.93 303.15,129.93" fill="#c3e5e2"/><rect x="259.85" y="129.92" width="43.31" height="43.31" fill="#f7f7f7"/><polygon points="259.85,129.92 303.16,129.92 303.16,173.23" fill="#fdfdfd"/><rect x="303.15" y="129.92" width="43.31" height="43.31" fill="#f5f5f5"/><polygon points="303.15,129.92 346.46,129.92 303.15,173.23" fill="#6bbeb6"/><rect x="346.46" y="86.62" width="86.62" height="86.62" fill="#eff8f7"/><rect x="346.46" y="86.62" width="86.62" height="86.62" fill="#d9eeed"/><rect x="433.0769230769231" y="86.61538461538461" width="86.61538461538461" height="86.61538461538461" fill="#ffffff"/><rect x="433.08" y="86.62" width="43.31" height="43.31" fill="#fefefe"/><polygon points="476.39,86.62 476.39,129.93 433.08,129.93" fill="#f4f4f4"/><rect x="476.38" y="86.62" width="43.31" height="43.31" fill="#f2f2f2"/><polygon points="476.38,86.62 519.69,129.93 476.38,129.93" fill="#f7f7f7"/><rect x="433.08" y="129.92" width="43.31" height="43.31" fill="#59b6ae"/><polygon points="433.08,129.92 476.39,129.92 476.39,173.23" fill="#f4f4f4"/><rect x="476.38" y="129.92" width="43.31" height="43.31" fill="#4aafa6"/><polygon points="476.38,129.92 519.69,129.92 476.38,173.23" fill="#fdfdfd"/><rect x="519.69" y="86.62" width="86.62" height="86.62" fill="#1e9c90"/><path d="M 519.69 86.62 A 86.62 86.62 0 0 1 606.3100000000001 173.24 L 519.69 173.24L519.69 86.62" fill="#f7f7f7"/><rect x="606.31" y="86.62" width="86.62" height="86.62" fill="#f9f9f9"/><polygon points="606.31,86.62 692.93,86.62 606.31,173.24" fill="#f4f4f4"/><rect x="692.92" y="86.62" width="86.62" height="86.62" fill="#79c4bd"/><path d="M 692.92 86.62 A 86.62 86.62 0 0 1  779.54 173.24 L 692.92 86.62 A 86.62 86.62 0 0 0 779.54 173.24" fill="#fefefe"/><rect x="779.54" y="86.62" width="86.62" height="86.62" fill="#fefefe"/><rect x="779.54" y="86.62" width="86.62" height="86.62" fill="#fdfdfd"/><rect x="866.1538461538462" y="86.61538461538461" width="86.61538461538461" height="86.61538461538461" fill="#ffffff"/><rect x="866.15" y="86.62" width="43.31" height="43.31" fill="#d6edeb"/><path d="M 866.15 86.62 A 43.31 43.31 0 0 1 909.46 129.93 L 866.15 129.93L866.15 86.62" fill="#fefefe"/><rect x="909.46" y="86.62" width="43.31" height="43.31" fill="#fbfbfb"/><path d="M 909.46 129.93 A 43.31 43.31 0 0 1  952.77 86.62 L 952.77 129.93L909.46 129.93" fill="#eaf6f4"/><rect x="866.15" y="129.92" width="43.31" height="43.31" fill="#c2e4e1"/><path d="M 866.15 173.23 A 43.31 43.31 0 0 0 909.46 129.92 L 866.15 129.92L866.15 173.23" fill="#fcfcfc"/><rect x="909.46" y="129.92" width="43.31" height="43.31" fill="#cfeae7"/><path d="M 909.46 129.92 A 43.31 43.31 0 0 0 952.77 173.23 L 952.77 129.92L909.46 129.92" fill="#75c2bb"/><rect x="952.7692307692307" y="86.61538461538461" width="86.61538461538461" height="86.61538461538461" fill="#ffffff"/><rect x="952.77" y="86.62" width="43.31" height="43.31" fill="#a0d5d0"/><path d="M 952.77 129.93 A 43.31 43.31 0 0 0 996.0799999999999 86.62 L 952.77 86.62L952.77 129.93" fill="#f7f7f7"/><rect x="996.08" y="86.62" width="43.31" height="43.31" fill="#f7f7f7"/><path d="M 996.08 86.62 A 43.31 43.31 0 0 0 1039.39 129.93 L 1039.39 86.62L996.08 86.62" fill="#66bbb4"/><rect x="952.77" y="129.92" width="43.31" height="43.31" fill="#50b1a9"/><path d="M 952.77 129.92 A 43.31 43.31 0 0 1 996.0799999999999 173.23 L 952.77 173.23L952.77 129.92" fill="#d3ecea"/><rect x="996.08" y="129.92" width="43.31" height="43.31" fill="#bce1de"/><path d="M 996.08 173.23 A 43.31 43.31 0 0 1  1039.39 129.92 L 1039.39 173.23L996.08 173.23" fill="#ebf6f5"/><rect x="1039.3846153846152" y="86.61538461538461" width="86.61538461538461" height="86.61538461538461" fill="#ffffff"/><rect x="1039.38" y="86.62" width="43.31" height="43.31" fill="#7dc5bf"/><path d="M 1039.38 129.93 A 43.31 43.31 0 0 1 1082.69 86.62 L 1082.69 97.4475 A 32.4825 32.4825 0 0 0 1050.2075000000002 129.93" fill="#f6f6f6"/><rect x="1082.69" y="86.62" width="43.31" height="43.31" fill="#bee2df"/><path d="M 1082.69 86.62 A 43.31 43.31 0 0 1 1126 129.93 L 1115.1725000000001 129.93 A 32.4825 32.4825 0 0 0 1082.69 97.4475" fill="#bee2df"/><rect x="1039.38" y="129.92" width="43.31" height="43.31" fill="#dff1ef"/><path d="M 1039.38 129.92 A 43.31 43.31 0 0 0 1082.69 173.23 L 1082.69 162.40249999999997 A 32.4825 32.4825 0 0 1 1050.2075000000002 129.92" fill="#f3f3f3"/><rect x="1082.69" y="129.92" width="43.31" height="43.31" fill="#79c4bd"/><path d="M 1082.69 173.23 A 43.31 43.31 0 0 0 1126 129.92 L 1115.1725000000001 129.92 A 32.4825 32.4825 0 0 1 1082.69 162.40249999999997" fill="#fbfbfb"/><rect x="0" y="173.23" width="86.62" height="86.62" fill="#abdad6"/><path d="M 0 173.23 A 86.62 86.62 0 0 1 86.62 259.85 L 0 259.85L0 173.23" fill="#fcfcfc"/><rect x="86.61538461538461" y="173.23076923076923" width="86.61538461538461" height="86.61538461538461" fill="#ffffff"/><rect x="86.62" y="173.23" width="43.31" height="43.31" fill="#14978c"/><polygon points="129.93,173.23 129.93,216.54 86.62,216.54" fill="#f6f6f6"/><rect x="129.92" y="173.23" width="43.31" height="43.31" fill="#64bab3"/><polygon points="129.92,173.23 173.23,216.54 129.92,216.54" fill="#f7f7f7"/><rect x="86.62" y="216.54" width="43.31" height="43.31" fill="#18998d"/><polygon points="86.62,216.54 129.93,216.54 129.93,259.85" fill="#f3f3f3"/><rect x="129.92" y="216.54" width="43.31" height="43.31" fill="#f3f3f3"/><polygon points="129.92,216.54 173.23,216.54 129.92,259.85" fill="#69bdb5"/><rect x="173.23076923076923" y="173.23076923076923" width="86.61538461538461" height="86.61538461538461" fill="#ffffff"/><rect x="173.23" y="173.23" width="43.31" height="43.31" fill="#78c3bd"/><path d="M 173.23 216.54 A 43.31 43.31 0 0 0 216.54 173.23 L 173.23 173.23L173.23 216.54" fill="#fafafa"/><rect x="216.54" y="173.23" width="43.31" height="43.31" fill="#f7f7f7"/><path d="M 216.54 173.23 A 43.31 43.31 0 0 0 259.85 216.54 L 259.85 173.23L216.54 173.23" fill="#f9f9f9"/><rect x="173.23" y="216.54" width="43.31" height="43.31" fill="#f8f8f8"/><path d="M 173.23 216.54 A 43.31 43.31 0 0 1 216.54 259.85 L 173.23 259.85L173.23 216.54" fill="#f6f6f6"/><rect x="216.54" y="216.54" width="43.31" height="43.31" fill="#f9f9f9"/><path d="M 216.54 259.85 A 43.31 43.31 0 0 1  259.85 216.54 L 259.85 259.85L216.54 259.85" fill="#b6dfdb"/><rect x="259.85" y="173.23" width="86.62" height="86.62" fill="#f2f9f8"/><polygon points="346.47,173.23 346.47,259.85 259.85,259.85" fill="#a3d6d2"/><rect x="346.46153846153845" y="173.23076923076923" width="86.61538461538461" height="86.61538461538461" fill="#ffffff"/><rect x="346.46" y="173.23" width="43.31" height="43.31" fill="#ecf7f6"/><polygon points="389.77,173.23 389.77,216.54 346.46,216.54" fill="#b8e0dc"/><rect x="389.77" y="173.23" width="43.31" height="43.31" fill="#b6dfdb"/><polygon points="389.77,173.23 433.08,216.54 389.77,216.54" fill="#f3f3f3"/><rect x="346.46" y="216.54" width="43.31" height="43.31" fill="#83c8c2"/><polygon points="346.46,216.54 389.77,216.54 346.46,259.85" fill="#f6f6f6"/><rect x="389.77" y="216.54" width="43.31" height="43.31" fill="#47aea4"/><polygon points="389.77,216.54 433.08,216.54 433.08,259.85" fill="#fcfcfc"/><rect x="433.08" y="173.23" width="86.62" height="86.62" fill="#249e93"/><path d="M 433.08 259.85 A 86.62 86.62 0 0 1  519.7 173.23 L 519.7 259.85L433.08 259.85" fill="#ffffff"/><rect x="519.69" y="173.23" width="86.62" height="86.62" fill="#cee9e7"/><polygon points="519.69,173.23 606.3100000000001,173.23 519.69,259.85" fill="#d4ecea"/><rect x="606.3076923076923" y="173.23076923076923" width="86.61538461538461" height="86.61538461538461" fill="#ffffff"/><rect x="606.31" y="173.23" width="43.31" height="43.31" fill="#fcfcfc"/><path d="M 606.31 173.23 A 43.31 43.31 0 0 0 649.6199999999999 216.54 L 649.6199999999999 173.23L606.31 173.23" fill="#fefefe"/><rect x="649.62" y="173.23" width="43.31" height="43.31" fill="#3ca99f"/><path d="M 649.62 216.54 A 43.31 43.31 0 0 0 692.9300000000001 173.23 L 649.62 173.23L649.62 216.54" fill="#f7f7f7"/><rect x="606.31" y="216.54" width="43.31" height="43.31" fill="#78c3bd"/><path d="M 606.31 259.85 A 43.31 43.31 0 0 1  649.6199999999999 216.54 L 649.6199999999999 259.85L606.31 259.85" fill="#9ed4cf"/><rect x="649.62" y="216.54" width="43.31" height="43.31" fill="#f4f4f4"/><path d="M 649.62 216.54 A 43.31 43.31 0 0 1 692.9300000000001 259.85 L 649.62 259.85L649.62 216.54" fill="#ffffff"/><rect x="692.92" y="173.23" width="86.62" height="86.62" fill="#fafafa"/><path d="M 692.92 259.85 A 86.62 86.62 0 0 1  779.54 173.23 L 692.92 259.85 A 86.62 86.62 0 0 0 779.54 173.23" fill="#72c0b9"/><rect x="779.5384615384615" y="173.23076923076923" width="86.61538461538461" height="86.61538461538461" fill="#ffffff"/><rect x="779.54" y="173.23" width="43.31" height="43.31" fill="#54b3ab"/><path d="M 779.54 216.54 A 43.31 43.31 0 0 1 822.8499999999999 173.23 L 822.8499999999999 184.0575 A 32.4825 32.4825 0 0 0 790.3675 216.54" fill="#fbfbfb"/><rect x="822.85" y="173.23" width="43.31" height="43.31" fill="#bbe1de"/><path d="M 822.85 173.23 A 43.31 43.31 0 0 1 866.1600000000001 216.54 L 855.3325 216.54 A 32.4825 32.4825 0 0 0 822.85 184.0575" fill="#f6f6f6"/><rect x="779.54" y="216.54" width="43.31" height="43.31" fill="#4bafa6"/><path d="M 779.54 216.54 A 43.31 43.31 0 0 0 822.8499999999999 259.85 L 822.8499999999999 249.02249999999998 A 32.4825 32.4825 0 0 1 790.3675 216.54" fill="#72c1ba"/><rect x="822.85" y="216.54" width="43.31" height="43.31" fill="#f5f5f5"/><path d="M 822.85 259.85 A 43.31 43.31 0 0 0 866.1600000000001 216.54 L 855.3325 216.54 A 32.4825 32.4825 0 0 1 822.85 249.02249999999998" fill="#79c4bd"/><rect x="866.1538461538462" y="173.23076923076923" width="86.61538461538461" height="86.61538461538461" fill="#ffffff"/><rect x="866.15" y="173.23" width="43.31" height="43.31" fill="#addbd7"/><circle cx="887.805" cy="194.885" r="21.655" fill="#f6f6f6"/><rect x="909.46" y="173.23" width="43.31" height="43.31" fill="#f8f8f8"/><rect x="909.46" y="173.23" width="43.31" height="43.31" fill="#e2f2f1"/><rect x="866.15" y="216.54" width="43.31" height="43.31" fill="#fafafa"/><circle cx="887.805" cy="238.195" r="21.655" fill="#fafafa"/><rect x="909.46" y="216.54" width="43.31" height="43.31" fill="#fcfcfc"/><rect x="909.46" y="216.54" width="43.31" height="43.31" fill="#f4f4f4"/><rect x="952.7692307692307" y="173.23076923076923" width="86.61538461538461" height="86.61538461538461" fill="#ffffff"/><rect x="952.77" y="173.23" width="43.31" height="43.31" fill="#f7fcfb"/><path d="M 952.77 173.23 A 43.31 43.31 0 0 0 996.0799999999999 216.54 L 996.0799999999999 173.23L952.77 173.23" fill="#fefefe"/><rect x="996.08" y="173.23" width="43.31" height="43.31" fill="#f6f6f6"/><path d="M 996.08 216.54 A 43.31 43.31 0 0 0 1039.39 173.23 L 996.08 173.23L996.08 216.54" fill="#fbfbfb"/><rect x="952.77" y="216.54" width="43.31" height="43.31" fill="#2fa399"/><path d="M 952.77 259.85 A 43.31 43.31 0 0 1  996.0799999999999 216.54 L 996.0799999999999 259.85L952.77 259.85" fill="#f5f5f5"/><rect x="996.08" y="216.54" width="43.31" height="43.31" fill="#f9f9f9"/><path d="M 996.08 216.54 A 43.31 43.31 0 0 1 1039.39 259.85 L 996.08 259.85L996.08 216.54" fill="#f9f9f9"/><rect x="1039.3846153846152" y="173.23076923076923" width="86.61538461538461" height="86.61538461538461" fill="#ffffff"/><rect x="1039.38" y="173.23" width="43.31" height="43.31" fill="#feffff"/><path d="M 1039.38 173.23 A 43.31 43.31 0 0 0 1082.69 216.54 L 1082.69 173.23L1039.38 173.23" fill="#f3f3f3"/><rect x="1082.69" y="173.23" width="43.31" height="43.31" fill="#fafafa"/><path d="M 1082.69 216.54 A 43.31 43.31 0 0 0 1126 173.23 L 1082.69 173.23L1082.69 216.54" fill="#f8f8f8"/><rect x="1039.38" y="216.54" width="43.31" height="43.31" fill="#fcfcfc"/><path d="M 1039.38 259.85 A 43.31 43.31 0 0 1  1082.69 216.54 L 1082.69 259.85L1039.38 259.85" fill="#f7f7f7"/><rect x="1082.69" y="216.54" width="43.31" height="43.31" fill="#f6fbfa"/><path d="M 1082.69 216.54 A 43.31 43.31 0 0 1 1126 259.85 L 1082.69 259.85L1082.69 216.54" fill="#f3f3f3"/><rect x="0" y="259.85" width="86.62" height="86.62" fill="#f3f3f3"/><path d="M 0 259.85 A 86.62 86.62 0 0 0 86.62 346.47 L 86.62 259.85L0 259.85" fill="#bee2df"/><rect x="86.62" y="259.85" width="86.62" height="86.62" fill="#fafafa"/><rect x="86.62" y="259.85" width="86.62" height="86.62" fill="#f3f3f3"/><rect x="173.23076923076923" y="259.8461538461538" width="86.61538461538461" height="86.61538461538461" fill="#ffffff"/><rect x="173.23" y="259.85" width="43.31" height="43.31" fill="#f8f8f8"/><path d="M 173.23 303.16 A 43.31 43.31 0 0 1  216.54 259.85 L 216.54 303.16L173.23 303.16" fill="#f3f3f3"/><rect x="216.54" y="259.85" width="43.31" height="43.31" fill="#f5f5f5"/><path d="M 216.54 259.85 A 43.31 43.31 0 0 1 259.85 303.16 L 216.54 303.16L216.54 259.85" fill="#fefefe"/><rect x="173.23" y="303.15" width="43.31" height="43.31" fill="#fafafa"/><path d="M 173.23 303.15 A 43.31 43.31 0 0 0 216.54 346.46 L 216.54 303.15L173.23 303.15" fill="#d6edeb"/><rect x="216.54" y="303.15" width="43.31" height="43.31" fill="#59b6ae"/><path d="M 216.54 346.46 A 43.31 43.31 0 0 0 259.85 303.15 L 216.54 303.15L216.54 346.46" fill="#fafafa"/><rect x="259.8461538461538" y="259.8461538461538" width="86.61538461538461" height="86.61538461538461" fill="#ffffff"/><rect x="259.85" y="259.85" width="43.31" height="43.31" fill="#fbfbfb"/><polygon points="303.16,259.85 303.16,303.16 259.85,303.16" fill="#fafafa"/><rect x="303.15" y="259.85" width="43.31" height="43.31" fill="#f5f5f5"/><polygon points="303.15,259.85 346.46,303.16 303.15,303.16" fill="#f4f4f4"/><rect x="259.85" y="303.15" width="43.31" height="43.31" fill="#5fb8b0"/><polygon points="259.85,303.15 303.16,303.15 303.16,346.46" fill="#e7f5f3"/><rect x="303.15" y="303.15" width="43.31" height="43.31" fill="#4aafa6"/><polygon points="303.15,303.15 346.46,303.15 303.15,346.46" fill="#f5f5f5"/><rect x="346.46153846153845" y="259.8461538461538" width="86.61538461538461" height="86.61538461538461" fill="#ffffff"/><rect x="346.46" y="259.85" width="43.31" height="43.31" fill="#e6f4f3"/><path d="M 346.46 259.85 A 43.31 43.31 0 0 0 389.77 303.16 L 389.77 259.85L346.46 259.85" fill="#b1dcd8"/><rect x="389.77" y="259.85" width="43.31" height="43.31" fill="#f6f6f6"/><path d="M 389.77 303.16 A 43.31 43.31 0 0 0 433.08 259.85 L 389.77 259.85L389.77 303.16" fill="#37a79d"/><rect x="346.46" y="303.15" width="43.31" height="43.31" fill="#fefefe"/><path d="M 346.46 346.46 A 43.31 43.31 0 0 1  389.77 303.15 L 389.77 346.46L346.46 346.46" fill="#f7f7f7"/><rect x="389.77" y="303.15" width="43.31" height="43.31" fill="#8ecdc7"/><path d="M 389.77 303.15 A 43.31 43.31 0 0 1 433.08 346.46 L 389.77 346.46L389.77 303.15" fill="#fcfcfc"/><rect x="433.0769230769231" y="259.8461538461538" width="86.61538461538461" height="86.61538461538461" fill="#ffffff"/><rect x="433.08" y="259.85" width="43.31" height="43.31" fill="#fafafa"/><polygon points="476.39,259.85 476.39,303.16 433.08,303.16" fill="#f2f9f8"/><rect x="476.38" y="259.85" width="43.31" height="43.31" fill="#e2f2f1"/><polygon points="476.38,259.85 519.69,303.16 476.38,303.16" fill="#f6f6f6"/><rect x="433.08" y="303.15" width="43.31" height="43.31" fill="#e1f2f0"/><polygon points="433.08,303.15 476.39,303.15 433.08,346.46" fill="#70c0b9"/><rect x="476.38" y="303.15" width="43.31" height="43.31" fill="#52b2aa"/><polygon points="476.38,303.15 519.69,303.15 519.69,346.46" fill="#73c1ba"/><rect x="519.6923076923076" y="259.8461538461538" width="86.61538461538461" height="86.61538461538461" fill="#ffffff"/><rect x="519.69" y="259.85" width="43.31" height="43.31" fill="#f3f3f3"/><path d="M 519.69 303.16 A 43.31 43.31 0 0 0 563 259.85 L 519.69 259.85L519.69 303.16" fill="#99d2cd"/><rect x="563" y="259.85" width="43.31" height="43.31" fill="#f4fafa"/><path d="M 563 259.85 A 43.31 43.31 0 0 0 606.31 303.16 L 606.31 259.85L563 259.85" fill="#f3f3f3"/><rect x="519.69" y="303.15" width="43.31" height="43.31" fill="#66bcb4"/><path d="M 519.69 303.15 A 43.31 43.31 0 0 1 563 346.46 L 519.69 346.46L519.69 303.15" fill="#98d1cc"/><rect x="563" y="303.15" width="43.31" height="43.31" fill="#a6d8d3"/><path d="M 563 346.46 A 43.31 43.31 0 0 1  606.31 303.15 L 606.31 346.46L563 346.46" fill="#f3f3f3"/><rect x="606.31" y="259.85" width="86.62" height="86.62" fill="#cee9e7"/><rect x="606.31" y="259.85" width="86.62" height="86.62" fill="#67bcb4"/><rect x="692.9230769230769" y="259.8461538461538" width="86.61538461538461" height="86.61538461538461" fill="#ffffff"/><rect x="692.92" y="259.85" width="43.31" height="43.31" fill="#fafafa"/><polygon points="736.23,259.85 736.23,303.16 692.92,303.16" fill="#3ea9a0"/><rect x="736.23" y="259.85" width="43.31" height="43.31" fill="#f5f5f5"/><polygon points="736.23,259.85 779.54,303.16 736.23,303.16" fill="#f8f8f8"/><rect x="692.92" y="303.15" width="43.31" height="43.31" fill="#f4f4f4"/><polygon points="692.92,303.15 736.23,303.15 736.23,346.46" fill="#f4f4f4"/><rect x="736.23" y="303.15" width="43.31" height="43.31" fill="#aedbd7"/><polygon points="736.23,303.15 779.54,303.15 736.23,346.46" fill="#f8f8f8"/><rect x="779.5384615384615" y="259.8461538461538" width="86.61538461538461" height="86.61538461538461" fill="#ffffff"/><rect x="779.54" y="259.85" width="43.31" height="43.31" fill="#fcfcfc"/><polygon points="822.8499999999999,259.85 822.8499999999999,303.16 779.54,303.16" fill="#f2f9f8"/><rect x="822.85" y="259.85" width="43.31" height="43.31" fill="#f6f6f6"/><polygon points="822.85,259.85 866.1600000000001,303.16 822.85,303.16" fill="#a1d5d1"/><rect x="779.54" y="303.15" width="43.31" height="43.31" fill="#f2f2f2"/><polygon points="779.54,303.15 822.8499999999999,303.15 822.8499999999999,346.46" fill="#c2e4e1"/><rect x="822.85" y="303.15" width="43.31" height="43.31" fill="#fefefe"/><polygon points="822.85,303.15 866.1600000000001,303.15 822.85,346.46" fill="#f7f7f7"/><rect x="866.1538461538462" y="259.8461538461538" width="86.61538461538461" height="86.61538461538461" fill="#ffffff"/><rect x="866.15" y="259.85" width="43.31" height="43.31" fill="#f6f6f6"/><path d="M 866.15 303.16 A 43.31 43.31 0 0 1  909.46 259.85 L 909.46 303.16L866.15 303.16" fill="#fbfbfb"/><rect x="909.46" y="259.85" width="43.31" height="43.31" fill="#fcfcfc"/><path d="M 909.46 259.85 A 43.31 43.31 0 0 1 952.77 303.16 L 909.46 303.16L909.46 259.85" fill="#f8f8f8"/><rect x="866.15" y="303.15" width="43.31" height="43.31" fill="#bee2df"/><path d="M 866.15 303.15 A 43.31 43.31 0 0 0 909.46 346.46 L 909.46 303.15L866.15 303.15" fill="#5bb6ae"/><rect x="909.46" y="303.15" width="43.31" height="43.31" fill="#eef8f7"/><path d="M 909.46 346.46 A 43.31 43.31 0 0 0 952.77 303.15 L 909.46 303.15L909.46 346.46" fill="#bce1de"/><rect x="952.7692307692307" y="259.8461538461538" width="86.61538461538461" height="86.61538461538461" fill="#ffffff"/><rect x="952.77" y="259.85" width="43.31" height="43.31" fill="#cfeae8"/><path d="M 952.77 259.85 A 43.31 43.31 0 0 1 996.0799999999999 303.16 L 952.77 303.16L952.77 259.85" fill="#f7f7f7"/><rect x="996.08" y="259.85" width="43.31" height="43.31" fill="#5bb6ae"/><path d="M 996.08 303.16 A 43.31 43.31 0 0 1  1039.39 259.85 L 1039.39 303.16L996.08 303.16" fill="#fcfcfc"/><rect x="952.77" y="303.15" width="43.31" height="43.31" fill="#6abdb6"/><path d="M 952.77 346.46 A 43.31 43.31 0 0 0 996.0799999999999 303.15 L 952.77 303.15L952.77 346.46" fill="#f7f7f7"/><rect x="996.08" y="303.15" width="43.31" height="43.31" fill="#e7f4f3"/><path d="M 996.08 303.15 A 43.31 43.31 0 0 0 1039.39 346.46 L 1039.39 303.15L996.08 303.15" fill="#f6f6f6"/><rect x="1039.3846153846152" y="259.8461538461538" width="86.61538461538461" height="86.61538461538461" fill="#ffffff"/><rect x="1039.38" y="259.85" width="43.31" height="43.31" fill="#44aca3"/><circle cx="1061.035" cy="281.505" r="21.655" fill="#fcfcfc"/><rect x="1082.69" y="259.85" width="43.31" height="43.31" fill="#0f9589"/><rect x="1082.69" y="259.85" width="43.31" height="43.31" fill="#ffffff"/><rect x="1039.38" y="303.15" width="43.31" height="43.31" fill="#ffffff"/><circle cx="1061.035" cy="324.80499999999995" r="21.655" fill="#ffffff"/><rect x="1082.69" y="303.15" width="43.31" height="43.31" fill="#9fd5d0"/><rect x="1082.69" y="303.15" width="43.31" height="43.31" fill="#eff8f7"/><rect x="0" y="346.46153846153845" width="86.61538461538461" height="86.61538461538461" fill="#ffffff"/><rect x="0" y="346.46" width="43.31" height="43.31" fill="#f8f8f8"/><polygon points="43.31,346.46 43.31,389.77 0,389.77" fill="#ffffff"/><rect x="43.31" y="346.46" width="43.31" height="43.31" fill="#fefefe"/><polygon points="43.31,346.46 86.62,346.46 43.31,389.77" fill="#f7f7f7"/><rect x="0" y="389.77" width="43.31" height="43.31" fill="#f9f9f9"/><polygon points="0,389.77 43.31,389.77 43.31,433.08" fill="#62bab2"/><rect x="43.31" y="389.77" width="43.31" height="43.31" fill="#f3f3f3"/><polygon points="43.31,389.77 86.62,433.08 43.31,433.08" fill="#90cec8"/><rect x="86.62" y="346.46" width="86.62" height="86.62" fill="#f3f3f3"/><rect x="86.62" y="346.46" width="86.62" height="86.62" fill="#34a59b"/><rect x="173.23076923076923" y="346.46153846153845" width="86.61538461538461" height="86.61538461538461" fill="#ffffff"/><rect x="173.23" y="346.46" width="43.31" height="43.31" fill="#70c0b9"/><path d="M 173.23 346.46 A 43.31 43.31 0 0 1 216.54 389.77 L 173.23 389.77L173.23 346.46" fill="#a2d6d1"/><rect x="216.54" y="346.46" width="43.31" height="43.31" fill="#f3f3f3"/><path d="M 216.54 389.77 A 43.31 43.31 0 0 1  259.85 346.46 L 259.85 389.77L216.54 389.77" fill="#dcf0ee"/><rect x="173.23" y="389.77" width="43.31" height="43.31" fill="#fefefe"/><path d="M 173.23 433.08 A 43.31 43.31 0 0 0 216.54 389.77 L 173.23 389.77L173.23 433.08" fill="#4db0a7"/><rect x="216.54" y="389.77" width="43.31" height="43.31" fill="#fbfbfb"/><path d="M 216.54 389.77 A 43.31 43.31 0 0 0 259.85 433.08 L 259.85 389.77L216.54 389.77" fill="#f5f5f5"/><rect x="259.8461538461538" y="346.46153846153845" width="86.61538461538461" height="86.61538461538461" fill="#ffffff"/><rect x="259.85" y="346.46" width="43.31" height="43.31" fill="#f6f6f6"/><path d="M 259.85 389.77 A 43.31 43.31 0 0 1 303.16 346.46 L 303.16 357.28749999999997 A 32.4825 32.4825 0 0 0 270.6775 389.77" fill="#2ca297"/><rect x="303.15" y="346.46" width="43.31" height="43.31" fill="#fefefe"/><path d="M 303.15 346.46 A 43.31 43.31 0 0 1 346.46 389.77 L 335.6325 389.77 A 32.4825 32.4825 0 0 0 303.15 357.28749999999997" fill="#f8f8f8"/><rect x="259.85" y="389.77" width="43.31" height="43.31" fill="#73c1ba"/><path d="M 259.85 389.77 A 43.31 43.31 0 0 0 303.16 433.08 L 303.16 422.2525 A 32.4825 32.4825 0 0 1 270.6775 389.77" fill="#fdfdfd"/><rect x="303.15" y="389.77" width="43.31" height="43.31" fill="#c6e6e3"/><path d="M 303.15 433.08 A 43.31 43.31 0 0 0 346.46 389.77 L 335.6325 389.77 A 32.4825 32.4825 0 0 1 303.15 422.2525" fill="#fbfbfb"/><rect x="346.46153846153845" y="346.46153846153845" width="86.61538461538461" height="86.61538461538461" fill="#ffffff"/><rect x="346.46" y="346.46" width="43.31" height="43.31" fill="#f5f5f5"/><path d="M 346.46 346.46 A 43.31 43.31 0 0 1 389.77 389.77 L 346.46 389.77L346.46 346.46" fill="#fbfbfb"/><rect x="389.77" y="346.46" width="43.31" height="43.31" fill="#dcf0ee"/><path d="M 389.77 389.77 A 43.31 43.31 0 0 1  433.08 346.46 L 433.08 389.77L389.77 389.77" fill="#f8f8f8"/><rect x="346.46" y="389.77" width="43.31" height="43.31" fill="#f1f9f8"/><path d="M 346.46 433.08 A 43.31 43.31 0 0 0 389.77 389.77 L 346.46 389.77L346.46 433.08" fill="#fcfcfc"/><rect x="389.77" y="389.77" width="43.31" height="43.31" fill="#cbe8e6"/><path d="M 389.77 389.77 A 43.31 43.31 0 0 0 433.08 433.08 L 433.08 389.77L389.77 389.77" fill="#94d0ca"/><rect x="433.0769230769231" y="346.46153846153845" width="86.61538461538461" height="86.61538461538461" fill="#ffffff"/><rect x="433.08" y="346.46" width="43.31" height="43.31" fill="#64bbb3"/><circle cx="454.735" cy="368.115" r="21.655" fill="#93cfca"/><rect x="476.38" y="346.46" width="43.31" height="43.31" fill="#f3f3f3"/><rect x="476.38" y="346.46" width="43.31" height="43.31" fill="#fafafa"/><rect x="433.08" y="389.77" width="43.31" height="43.31" fill="#f9f9f9"/><circle cx="454.735" cy="411.42499999999995" r="21.655" fill="#f7f7f7"/><rect x="476.38" y="389.77" width="43.31" height="43.31" fill="#fdfdfd"/><rect x="476.38" y="389.77" width="43.31" height="43.31" fill="#acdad6"/><rect x="519.6923076923076" y="346.46153846153845" width="86.61538461538461" height="86.61538461538461" fill="#ffffff"/><rect x="519.69" y="346.46" width="43.31" height="43.31" fill="#fbfdfd"/><path d="M 519.69 389.77 A 43.31 43.31 0 0 1 563 346.46 L 563 357.28749999999997 A 32.4825 32.4825 0 0 0 530.5175 389.77" fill="#fefefe"/><rect x="563" y="346.46" width="43.31" height="43.31" fill="#ffffff"/><path d="M 563 346.46 A 43.31 43.31 0 0 1 606.31 389.77 L 595.4825 389.77 A 32.4825 32.4825 0 0 0 563 357.28749999999997" fill="#e9f5f4"/><rect x="519.69" y="389.77" width="43.31" height="43.31" fill="#dff1ef"/><path d="M 519.69 389.77 A 43.31 43.31 0 0 0 563 433.08 L 563 422.2525 A 32.4825 32.4825 0 0 1 530.5175 389.77" fill="#eaf6f5"/><rect x="563" y="389.77" width="43.31" height="43.31" fill="#fefefe"/><path d="M 563 433.08 A 43.31 43.31 0 0 0 606.31 389.77 L 595.4825 389.77 A 32.4825 32.4825 0 0 1 563 422.2525" fill="#f3f3f3"/><rect x="606.3076923076923" y="346.46153846153845" width="86.61538461538461" height="86.61538461538461" fill="#ffffff"/><rect x="606.31" y="346.46" width="43.31" height="43.31" fill="#65bbb3"/><polygon points="649.6199999999999,346.46 649.6199999999999,389.77 606.31,389.77" fill="#fdfdfd"/><rect x="649.62" y="346.46" width="43.31" height="43.31" fill="#38a79d"/><polygon points="649.62,346.46 692.9300000000001,389.77 649.62,389.77" fill="#f4f4f4"/><rect x="606.31" y="389.77" width="43.31" height="43.31" fill="#f5f5f5"/><polygon points="606.31,389.77 649.6199999999999,389.77 606.31,433.08" fill="#bee2df"/><rect x="649.62" y="389.77" width="43.31" height="43.31" fill="#74c1ba"/><polygon points="649.62,389.77 692.9300000000001,389.77 692.9300000000001,433.08" fill="#fefefe"/><rect x="692.9230769230769" y="346.46153846153845" width="86.61538461538461" height="86.61538461538461" fill="#ffffff"/><rect x="692.92" y="346.46" width="43.31" height="43.31" fill="#f2f2f2"/><path d="M 692.92 389.77 A 43.31 43.31 0 0 0 736.23 346.46 L 692.92 346.46L692.92 389.77" fill="#aedbd7"/><rect x="736.23" y="346.46" width="43.31" height="43.31" fill="#8ecdc7"/><path d="M 736.23 346.46 A 43.31 43.31 0 0 0 779.54 389.77 L 779.54 346.46L736.23 346.46" fill="#dff1ef"/><rect x="692.92" y="389.77" width="43.31" height="43.31" fill="#12968a"/><path d="M 692.92 389.77 A 43.31 43.31 0 0 1 736.23 433.08 L 692.92 433.08L692.92 389.77" fill="#fefefe"/><rect x="736.23" y="389.77" width="43.31" height="43.31" fill="#40aba1"/><path d="M 736.23 433.08 A 43.31 43.31 0 0 1  779.54 389.77 L 779.54 433.08L736.23 433.08" fill="#18998d"/><rect x="779.5384615384615" y="346.46153846153845" width="86.61538461538461" height="86.61538461538461" fill="#ffffff"/><rect x="779.54" y="346.46" width="43.31" height="43.31" fill="#f6f6f6"/><path d="M 779.54 346.46 A 43.31 43.31 0 0 0 822.8499999999999 389.77 L 822.8499999999999 346.46L779.54 346.46" fill="#f6f6f6"/><rect x="822.85" y="346.46" width="43.31" height="43.31" fill="#f9f9f9"/><path d="M 822.85 389.77 A 43.31 43.31 0 0 0 866.1600000000001 346.46 L 822.85 346.46L822.85 389.77" fill="#f5fbfa"/><rect x="779.54" y="389.77" width="43.31" height="43.31" fill="#daefed"/><path d="M 779.54 433.08 A 43.31 43.31 0 0 1  822.8499999999999 389.77 L 822.8499999999999 433.08L779.54 433.08" fill="#89cbc5"/><rect x="822.85" y="389.77" width="43.31" height="43.31" fill="#9ad2cd"/><path d="M 822.85 389.77 A 43.31 43.31 0 0 1 866.1600000000001 433.08 L 822.85 433.08L822.85 389.77" fill="#cae8e5"/><rect x="866.15" y="346.46" width="86.62" height="86.62" fill="#fafafa"/><rect x="866.15" y="346.46" width="86.62" height="86.62" fill="#239e93"/><rect x="952.77" y="346.46" width="86.62" height="86.62" fill="#64bab3"/><path d="M 952.77 346.46 A 86.62 86.62 0 0 1  1039.3899999999999 433.08 L 952.77 346.46 A 86.62 86.62 0 0 0 1039.3899999999999 433.08" fill="#5fb8b1"/><rect x="1039.3846153846152" y="346.46153846153845" width="86.61538461538461" height="86.61538461538461" fill="#ffffff"/><rect x="1039.38" y="346.46" width="43.31" height="43.31" fill="#36a69c"/><polygon points="1082.69,346.46 1082.69,389.77 1039.38,389.77" fill="#f9f9f9"/><rect x="1082.69" y="346.46" width="43.31" height="43.31" fill="#3eaaa0"/><polygon points="1082.69,346.46 1126,389.77 1082.69,389.77" fill="#f3f3f3"/><rect x="1039.38" y="389.77" width="43.31" height="43.31" fill="#fdfdfd"/><polygon points="1039.38,389.77 1082.69,389.77 1082.69,433.08" fill="#f8fcfc"/><rect x="1082.69" y="389.77" width="43.31" height="43.31" fill="#f9f9f9"/><polygon points="1082.69,389.77 1126,389.77 1082.69,433.08" fill="#f9f9f9"/></g></svg>